<svg width="38" height="36" viewBox="0 0 38 36" fill="none" xmlns="http://www.w3.org/2000/svg">
<g id="&#208;&#152;&#208;&#186;&#208;&#190;&#208;&#189;&#208;&#186;&#208;&#176; &#209;&#130;&#208;&#181;&#208;&#187;&#208;&#181;&#209;&#132;&#208;&#190;&#208;&#189;&#208;&#176; /  2. &#208;&#159;&#209;&#131;&#208;&#187;&#209;&#129;&#208;&#176;&#209;&#134;&#208;&#184;&#209;&#143;, &#208;&#188;&#208;&#176;&#208;&#187;&#208;&#176;&#209;&#143;">
<g id="Vector">
<path d="M33.4455 18.5686C32.8247 17.9557 32.0498 17.9557 31.4329 18.5686C30.9624 19.0351 30.4919 19.5017 30.0293 19.9762C29.9028 20.1067 29.796 20.1343 29.6418 20.0473C29.3374 19.8813 29.0132 19.7468 28.7206 19.565C27.3565 18.707 26.2138 17.6038 25.2016 16.3623C24.6995 15.7455 24.2527 15.0852 23.9403 14.3419C23.8771 14.1916 23.8889 14.0928 24.0115 13.9702C24.482 13.5155 24.9407 13.049 25.4033 12.5824C26.0477 11.934 26.0477 11.1748 25.3993 10.5224C25.0316 10.1507 24.6639 9.78699 24.2962 9.41532C23.9166 9.03575 23.541 8.65222 23.1574 8.2766C22.5367 7.67166 21.7617 7.67166 21.1449 8.28056C20.6705 8.74712 20.2158 9.22554 19.7334 9.68419C19.2866 10.1073 19.0612 10.6252 19.0138 11.2302C18.9386 12.2147 19.1798 13.1438 19.5199 14.0493C20.2158 15.9234 21.2754 17.588 22.5604 19.1142C24.2962 21.1782 26.368 22.8111 28.7917 23.9894C29.883 24.5192 31.0138 24.9264 32.2435 24.9937C33.0896 25.0411 33.825 24.8276 34.4142 24.1673C34.8175 23.7166 35.2722 23.3053 35.6992 22.8744C36.3318 22.2338 36.3358 21.4589 35.7071 20.8263C34.9559 20.0711 34.2007 19.3198 33.4455 18.5686Z" fill="white"/>
<path d="M32.6905 15.4185L34.1495 15.1694C33.9202 13.829 33.2876 12.6152 32.3268 11.6505C31.3106 10.6343 30.0256 9.99377 28.6101 9.79608L28.4045 11.263C29.4997 11.4172 30.4961 11.9114 31.2829 12.6982C32.0263 13.4416 32.5126 14.3826 32.6905 15.4185Z" fill="white"/>
<path d="M34.9718 9.07613C33.2875 7.39177 31.1563 6.32817 28.8037 6L28.5981 7.46689C30.6304 7.75157 32.473 8.67283 33.928 10.1239C35.3079 11.5038 36.2133 13.2475 36.5415 15.1651L38.0005 14.916C37.617 12.6939 36.5692 10.6775 34.9718 9.07613Z" fill="white"/>
</g>
</g>
</svg>
